<svg xmlns="http://www.w3.org/2000/svg" width="16" height="16" viewBox="0 0 16 16">
  <path fill="#6F8EB8" fill-rule="evenodd" d="M15,4.5 C15.8284271,4.5 16.5,5.17157288 16.5,6 L16.5,13.499 L24,13.5 C24.8284271,13.5 25.5,14.1715729 25.5,15 C25.5,15.8284271 24.8284271,16.5 24,16.5 L16.5,16.499 L16.5,24 C16.5,24.8284271 15.8284271,25.5 15,25.5 C14.1715729,25.5 13.5,24.8284271 13.5,24 L13.5,16.499 L6,16.5 C5.17157288,16.5 4.5,15.8284271 4.5,15 C4.5,14.1715729 5.17157288,13.5 6,13.5 L13.5,13.499 L13.5,6 C13.5,5.17157288 14.1715729,4.5 15,4.5 Z" transform="rotate(45 19.95 3.05)"/>
</svg>
